# xmcd
#
# Track frame offsets: 
#        150
#        10487
#        28897
#        44162
#        63990
#        84625
#        99287
#        112770
#        133682
#        164845
#        187512
#        200145
#
# Disc length: 2908 seconds
#
# Revision: 5
# Processed by: cddbd v1.5.1PL0 Copyright (c) Steve Scherf et al.
# Submitted via: ExactAudioCopy v0.95a5
#
DISCID=a40b5a0c
DTITLE=Moxy Fruvous - Thornhill
DYEAR=1999
DGENRE=
TTITLE0=Half As Much
TTITLE1=Sad Girl
TTITLE2=You Can't Be Too Careful
TTITLE3=I Will Hold On
TTITLE4=Earthquakes
TTITLE5=When She Talks
TTITLE6=Splatter Splatter
TTITLE7=Independence Day
TTITLE8=Downsizing
TTITLE9=Hate Letter
TTITLE10=If Only You Knew
TTITLE11=My Poor Generation
EXTD=
EXTT0=
EXTT1=
EXTT2=
EXTT3=
EXTT4=
EXTT5=
EXTT6=
EXTT7=
EXTT8=
EXTT9=
EXTT10=
EXTT11=
PLAYORDER=
